<svg width="420" height="560" viewBox="0 0 420 560" fill="none" xmlns="http://www.w3.org/2000/svg">
  <defs>
    <linearGradient id="topGlow" x1="0" y1="0" x2="1" y2="1">
      <stop offset="0" stop-color="#2dd4bf" />
      <stop offset="1" stop-color="#6366f1" />
    </linearGradient>
    <linearGradient id="blockFront" x1="0" y1="0" x2="1" y2="1">
      <stop offset="0" stop-color="#1f2937" />
      <stop offset="1" stop-color="#0f172a" />
    </linearGradient>
    <linearGradient id="blockSide" x1="0" y1="0" x2="1" y2="1">
      <stop offset="0" stop-color="#111827" />
      <stop offset="1" stop-color="#0b0f1a" />
    </linearGradient>
  </defs>

  <path d="M220 48 H310" stroke="#2dd4bf" stroke-width="2" stroke-linecap="round" />
  <circle cx="212" cy="48" r="4" fill="#2dd4bf" />

  <g opacity="0.9">
    <rect x="130" y="80" width="200" height="80" rx="18" fill="url(#blockFront)" />
    <rect x="150" y="70" width="200" height="80" rx="18" fill="url(#blockSide)" />
    <rect x="140" y="60" width="200" height="80" rx="18" fill="url(#topGlow)" opacity="0.35" />
    <text x="230" y="118" text-anchor="middle" font-family="Arial, sans-serif" font-size="16" fill="#e5e7eb">Q1 2026</text>
  </g>

  <g opacity="0.9">
    <rect x="130" y="190" width="200" height="80" rx="18" fill="url(#blockFront)" />
    <rect x="150" y="180" width="200" height="80" rx="18" fill="url(#blockSide)" />
    <rect x="140" y="170" width="200" height="80" rx="18" fill="url(#topGlow)" opacity="0.28" />
    <text x="230" y="228" text-anchor="middle" font-family="Arial, sans-serif" font-size="16" fill="#e5e7eb">Q2 2026</text>
  </g>

  <g opacity="0.9">
    <rect x="130" y="300" width="200" height="80" rx="18" fill="url(#blockFront)" />
    <rect x="150" y="290" width="200" height="80" rx="18" fill="url(#blockSide)" />
    <rect x="140" y="280" width="200" height="80" rx="18" fill="url(#topGlow)" opacity="0.22" />
    <text x="230" y="338" text-anchor="middle" font-family="Arial, sans-serif" font-size="16" fill="#e5e7eb">Q3 2026</text>
  </g>

  <g opacity="0.9">
    <rect x="130" y="410" width="200" height="80" rx="18" fill="url(#blockFront)" />
    <rect x="150" y="400" width="200" height="80" rx="18" fill="url(#blockSide)" />
    <rect x="140" y="390" width="200" height="80" rx="18" fill="url(#topGlow)" opacity="0.18" />
    <text x="230" y="448" text-anchor="middle" font-family="Arial, sans-serif" font-size="16" fill="#e5e7eb">Q4 2026</text>
  </g>
</svg>
